<svg xmlns="http://www.w3.org/2000/svg" width="600" height="290" font-family="sans-serif"><title>hist</title><rect width="100%" height="100%" fill="white"/><text x="10" y="22" font-size="14" font-weight="bold">Distribution of % byte reduction (all tools)</text><rect x="50" y="242.59259259259258" width="44" height="7.407407407407407" fill="#2f6fed"/><text x="50" y="266" font-size="10">0-10%</text><text x="62" y="236.59259259259258" font-size="10">1</text><rect x="102" y="250.0" width="44" height="0.0" fill="#2f6fed"/><text x="102" y="266" font-size="10">10-20%</text><text x="114" y="244.0" font-size="10">0</text><rect x="154" y="242.59259259259258" width="44" height="7.407407407407407" fill="#2f6fed"/><text x="154" y="266" font-size="10">20-30%</text><text x="166" y="236.59259259259258" font-size="10">1</text><rect x="206" y="250.0" width="44" height="0.0" fill="#2f6fed"/><text x="206" y="266" font-size="10">30-40%</text><text x="218" y="244.0" font-size="10">0</text><rect x="258" y="235.1851851851852" width="44" height="14.814814814814815" fill="#2f6fed"/><text x="258" y="266" font-size="10">40-50%</text><text x="270" y="229.1851851851852" font-size="10">2</text><rect x="310" y="79.62962962962962" width="44" height="170.37037037037038" fill="#2f6fed"/><text x="310" y="266" font-size="10">50-60%</text><text x="322" y="73.62962962962962" font-size="10">23</text><rect x="362" y="50.0" width="44" height="200.0" fill="#2f6fed"/><text x="362" y="266" font-size="10">60-70%</text><text x="374" y="44.0" font-size="10">27</text><rect x="414" y="235.1851851851852" width="44" height="14.814814814814815" fill="#2f6fed"/><text x="414" y="266" font-size="10">70-80%</text><text x="426" y="229.1851851851852" font-size="10">2</text><rect x="466" y="250.0" width="44" height="0.0" fill="#2f6fed"/><text x="466" y="266" font-size="10">80-90%</text><text x="478" y="244.0" font-size="10">0</text><rect x="518" y="250.0" width="44" height="0.0" fill="#2f6fed"/><text x="518" y="266" font-size="10">90-100%</text><text x="530" y="244.0" font-size="10">0</text></svg>