<svg xmlns="http://www.w3.org/2000/svg" width="618" height="618" font-family="sans-serif"><title>cm</title><rect width="100%" height="100%" fill="white"/><text x="10" y="22" font-size="14" font-weight="bold">Confusion matrix — improved_overlap (rows=true, cols=pred)</text><text x="156" y="142" font-size="9" transform="rotate(-20 156,142)">code_generat</text><text x="220" y="142" font-size="9" transform="rotate(-20 220,142)">code_underst</text><text x="284" y="142" font-size="9" transform="rotate(-20 284,142)">technical_de</text><text x="348" y="142" font-size="9" transform="rotate(-20 348,142)">analytical_r</text><text x="412" y="142" font-size="9" transform="rotate(-20 412,142)">writing</text><text x="476" y="142" font-size="9" transform="rotate(-20 476,142)">factual_look</text><text x="540" y="142" font-size="9" transform="rotate(-20 540,142)">general</text><text x="10" y="172" font-size="9">code_generation</text><rect x="150" y="150" width="62" height="62" fill="rgba(47,111,237,1.00)"/><text x="156" y="170" font-size="11" fill="white">55</text><rect x="214" y="150" width="62" height="62" fill="rgba(47,111,237,0.15)"/><text x="220" y="170" font-size="11" fill="white">0</text><rect x="278" y="150" width="62" height="62" fill="rgba(47,111,237,0.15)"/><text x="284" y="170" font-size="11" fill="white">0</text><rect x="342" y="150" width="62" height="62" fill="rgba(47,111,237,0.15)"/><text x="348" y="170" font-size="11" fill="white">0</text><rect x="406" y="150" width="62" height="62" fill="rgba(47,111,237,0.15)"/><text x="412" y="170" font-size="11" fill="white">0</text><rect x="470" y="150" width="62" height="62" fill="rgba(47,111,237,0.15)"/><text x="476" y="170" font-size="11" fill="white">0</text><rect x="534" y="150" width="62" height="62" fill="rgba(47,111,237,0.15)"/><text x="540" y="170" font-size="11" fill="white">0</text><text x="10" y="236" font-size="9">code_understanding</text><rect x="150" y="214" width="62" height="62" fill="rgba(47,111,237,0.15)"/><text x="156" y="234" font-size="11" fill="white">0</text><rect x="214" y="214" width="62" height="62" fill="rgba(47,111,237,0.54)"/><text x="220" y="234" font-size="11" fill="white">25</text><rect x="278" y="214" width="62" height="62" fill="rgba(47,111,237,0.15)"/><text x="284" y="234" font-size="11" fill="white">0</text><rect x="342" y="214" width="62" height="62" fill="rgba(47,111,237,0.15)"/><text x="348" y="234" font-size="11" fill="white">0</text><rect x="406" y="214" width="62" height="62" fill="rgba(47,111,237,0.15)"/><text x="412" y="234" font-size="11" fill="white">0</text><rect x="470" y="214" width="62" height="62" fill="rgba(47,111,237,0.15)"/><text x="476" y="234" font-size="11" fill="white">0</text><rect x="534" y="214" width="62" height="62" fill="rgba(47,111,237,0.15)"/><text x="540" y="234" font-size="11" fill="white">0</text><text x="10" y="300" font-size="9">technical_design</text><rect x="150" y="278" width="62" height="62" fill="rgba(47,111,237,0.15)"/><text x="156" y="298" font-size="11" fill="white">0</text><rect x="214" y="278" width="62" height="62" fill="rgba(47,111,237,0.15)"/><text x="220" y="298" font-size="11" fill="white">0</text><rect x="278" y="278" width="62" height="62" fill="rgba(47,111,237,0.77)"/><text x="284" y="298" font-size="11" fill="white">40</text><rect x="342" y="278" width="62" height="62" fill="rgba(47,111,237,0.15)"/><text x="348" y="298" font-size="11" fill="white">0</text><rect x="406" y="278" width="62" height="62" fill="rgba(47,111,237,0.15)"/><text x="412" y="298" font-size="11" fill="white">0</text><rect x="470" y="278" width="62" height="62" fill="rgba(47,111,237,0.15)"/><text x="476" y="298" font-size="11" fill="white">0</text><rect x="534" y="278" width="62" height="62" fill="rgba(47,111,237,0.15)"/><text x="540" y="298" font-size="11" fill="white">0</text><text x="10" y="364" font-size="9">analytical_reasoni</text><rect x="150" y="342" width="62" height="62" fill="rgba(47,111,237,0.15)"/><text x="156" y="362" font-size="11" fill="white">0</text><rect x="214" y="342" width="62" height="62" fill="rgba(47,111,237,0.15)"/><text x="220" y="362" font-size="11" fill="white">0</text><rect x="278" y="342" width="62" height="62" fill="rgba(47,111,237,0.15)"/><text x="284" y="362" font-size="11" fill="white">0</text><rect x="342" y="342" width="62" height="62" fill="rgba(47,111,237,0.77)"/><text x="348" y="362" font-size="11" fill="white">40</text><rect x="406" y="342" width="62" height="62" fill="rgba(47,111,237,0.15)"/><text x="412" y="362" font-size="11" fill="white">0</text><rect x="470" y="342" width="62" height="62" fill="rgba(47,111,237,0.15)"/><text x="476" y="362" font-size="11" fill="white">0</text><rect x="534" y="342" width="62" height="62" fill="rgba(47,111,237,0.15)"/><text x="540" y="362" font-size="11" fill="white">0</text><text x="10" y="428" font-size="9">writing</text><rect x="150" y="406" width="62" height="62" fill="rgba(47,111,237,0.15)"/><text x="156" y="426" font-size="11" fill="white">0</text><rect x="214" y="406" width="62" height="62" fill="rgba(47,111,237,0.15)"/><text x="220" y="426" font-size="11" fill="white">0</text><rect x="278" y="406" width="62" height="62" fill="rgba(47,111,237,0.15)"/><text x="284" y="426" font-size="11" fill="white">0</text><rect x="342" y="406" width="62" height="62" fill="rgba(47,111,237,0.15)"/><text x="348" y="426" font-size="11" fill="white">0</text><rect x="406" y="406" width="62" height="62" fill="rgba(47,111,237,0.40)"/><text x="412" y="426" font-size="11" fill="white">16</text><rect x="470" y="406" width="62" height="62" fill="rgba(47,111,237,0.15)"/><text x="476" y="426" font-size="11" fill="white">0</text><rect x="534" y="406" width="62" height="62" fill="rgba(47,111,237,0.15)"/><text x="540" y="426" font-size="11" fill="white">0</text><text x="10" y="492" font-size="9">factual_lookup</text><rect x="150" y="470" width="62" height="62" fill="rgba(47,111,237,0.15)"/><text x="156" y="490" font-size="11" fill="white">0</text><rect x="214" y="470" width="62" height="62" fill="rgba(47,111,237,0.15)"/><text x="220" y="490" font-size="11" fill="white">0</text><rect x="278" y="470" width="62" height="62" fill="rgba(47,111,237,0.15)"/><text x="284" y="490" font-size="11" fill="white">0</text><rect x="342" y="470" width="62" height="62" fill="rgba(47,111,237,0.15)"/><text x="348" y="490" font-size="11" fill="white">0</text><rect x="406" y="470" width="62" height="62" fill="rgba(47,111,237,0.15)"/><text x="412" y="490" font-size="11" fill="white">0</text><rect x="470" y="470" width="62" height="62" fill="rgba(47,111,237,0.77)"/><text x="476" y="490" font-size="11" fill="white">40</text><rect x="534" y="470" width="62" height="62" fill="rgba(47,111,237,0.15)"/><text x="540" y="490" font-size="11" fill="white">0</text><text x="10" y="556" font-size="9">general</text><rect x="150" y="534" width="62" height="62" fill="rgba(47,111,237,0.15)"/><text x="156" y="554" font-size="11" fill="white">0</text><rect x="214" y="534" width="62" height="62" fill="rgba(47,111,237,0.15)"/><text x="220" y="554" font-size="11" fill="white">0</text><rect x="278" y="534" width="62" height="62" fill="rgba(47,111,237,0.15)"/><text x="284" y="554" font-size="11" fill="white">0</text><rect x="342" y="534" width="62" height="62" fill="rgba(47,111,237,0.15)"/><text x="348" y="554" font-size="11" fill="white">0</text><rect x="406" y="534" width="62" height="62" fill="rgba(47,111,237,0.15)"/><text x="412" y="554" font-size="11" fill="white">0</text><rect x="470" y="534" width="62" height="62" fill="rgba(47,111,237,0.15)"/><text x="476" y="554" font-size="11" fill="white">0</text><rect x="534" y="534" width="62" height="62" fill="rgba(47,111,237,0.30)"/><text x="540" y="554" font-size="11" fill="white">10</text></svg>